<svg width="132" height="139" viewBox="0 0 132 139" fill="none" xmlns="http://www.w3.org/2000/svg">
<g filter="url(#filter0_d_0_371)">
<ellipse cx="66" cy="66.5" rx="66" ry="66.5" fill="#5F37A8"/>
</g>
<ellipse cx="66" cy="63.5517" rx="66" ry="63.5517" fill="#834EE3"/>
<ellipse cx="66" cy="63.5517" rx="66" ry="63.5517" fill="url(#paint0_linear_0_371)"/>
<ellipse cx="66.0002" cy="64.862" rx="50.6667" ry="49.7931" fill="#BABFD4"/>
<ellipse cx="66.0002" cy="67.4825" rx="50.6667" ry="47.1724" fill="url(#paint1_linear_0_371)"/>
<path fill-rule="evenodd" clip-rule="evenodd" d="M90.3043 41.2272C88.1279 40.1364 85.3106 40.5257 82.3713 42.3228C80.0469 43.7441 77.9132 45.9028 76.8029 47.9565C74.6827 51.8781 75.5141 55.3361 76.0492 56.7959C75.3176 59.0901 74.3075 60.9966 73.023 62.513C71.9876 61.2321 71.41 59.6185 71.41 57.9307V57.8484L74.1313 55.0757C74.422 54.7793 75.1748 53.6115 74.1312 52.5481C73.4463 51.8503 72.3356 51.8503 71.6506 52.5481L71.4098 52.7935V52.2354C71.4098 51.2484 70.6244 50.4482 69.6558 50.4482C68.6871 50.4482 67.9018 51.2484 67.9018 52.2354V52.7935L67.661 52.5481C66.9761 51.8503 65.8654 51.8503 65.1804 52.5481C64.4954 53.2459 64.4954 54.3776 65.1804 55.0756L67.9019 57.8482V57.9305C67.9019 60.4842 68.7847 62.9254 70.3674 64.8517C67.5252 66.6784 63.843 67.2971 59.3416 66.6953C57.7176 66.478 56.0779 66.451 54.4705 66.6097C52.4548 64.6015 49.6921 63.4619 46.7821 63.4619H46.7001L43.9398 60.7817C43.2451 60.1071 42.1185 60.1071 41.4237 60.7817C40.729 61.4562 40.729 62.5502 41.4237 63.2249L41.6679 63.462H41.1125C40.1299 63.462 39.3333 64.2356 39.3333 65.1896C39.3333 66.1436 40.1299 66.9168 41.1125 66.9168H41.668L41.4237 67.1541C40.729 67.8287 40.729 68.9226 41.4237 69.5973C41.7711 69.9347 42.2264 70.1034 42.6817 70.1034C43.137 70.1034 43.5924 69.9347 43.9399 69.5973L46.7002 66.9169H46.7822C47.8594 66.9169 48.906 67.1516 49.8548 67.5879C49.9829 67.5535 50.1113 67.5202 50.24 67.488C50.2007 67.5007 50.1613 67.5136 50.1221 67.5266C47.1118 68.5249 44.3965 70.2582 42.2702 72.5389C38.6036 76.4714 37.2608 81.3758 38.387 86.7223C39.2163 90.6592 41.1068 93.4487 41.1868 93.5656C41.5259 94.0602 42.0859 94.3447 42.6709 94.3447C42.8139 94.3447 42.9584 94.3277 43.1014 94.2928C43.8302 94.1143 44.3698 93.5049 44.4541 92.7654C44.4635 92.6842 45.4361 84.5965 50.4592 80.0203C51.0989 79.4375 53.5175 77.5802 57.7822 78.1503C59.2875 78.3516 60.7436 78.4717 62.1496 78.5107C62.9207 79.9901 63.1584 81.7003 62.7975 83.3573L62.78 83.4375L59.4865 85.5516C58.6576 86.0838 58.4173 87.1865 58.9501 88.0145C59.4828 88.8428 60.5867 89.0825 61.4157 88.5505L61.7071 88.3634L61.5886 88.9072C61.3791 89.8691 61.9898 90.8185 62.9526 91.0278C63.0805 91.0555 63.208 91.0689 63.3337 91.0689C64.1547 91.0689 64.8937 90.4994 65.0755 89.6653L65.194 89.1215L65.3813 89.4127C65.7222 89.9427 66.2969 90.2319 66.8839 90.2319C67.2141 90.2319 67.5483 90.1402 67.8469 89.9487C68.6757 89.4165 68.916 88.3138 68.3832 87.4858L66.2669 84.1957L66.2843 84.1154C66.7028 82.1946 66.5844 80.2256 65.9734 78.4067C70.8275 77.9889 74.9803 76.4631 78.3772 73.8404C78.7787 73.5305 79.1687 73.206 79.5472 72.8673C81.4825 74.5131 83.9712 75.4343 86.5784 75.4343H86.6601L89.4104 78.1145C89.7567 78.452 90.2102 78.6206 90.664 78.6206C91.1175 78.6206 91.5713 78.4519 91.9174 78.1145C92.6097 77.44 92.6097 76.3461 91.9174 75.6714L91.674 75.4342H92.2275C93.2063 75.4343 94 74.6608 94 73.7068C94 72.7528 93.2063 71.9793 92.2273 71.9793H91.6738L91.9172 71.7421C92.6095 71.0676 92.6095 69.9736 91.9172 69.299C91.225 68.6242 90.1026 68.6245 89.4103 69.299L86.66 71.9792H86.5783C84.8699 71.9792 83.2374 71.3879 81.9548 70.3287C83.9124 67.9022 85.4459 64.9678 86.5375 61.5538C89.3557 60.5649 91.353 58.9385 92.4798 56.7131C94.4761 52.7705 95.1822 43.6718 90.3043 41.2272Z" fill="#3B4262"/>
<defs>
<filter id="filter0_d_0_371" x="-3" y="0" width="138" height="139" filterUnits="userSpaceOnUse" color-interpolation-filters="sRGB">
<feFlood flood-opacity="0" result="BackgroundImageFix"/>
<feColorMatrix in="SourceAlpha" type="matrix" values="0 0 0 0 0 0 0 0 0 0 0 0 0 0 0 0 0 0 127 0" result="hardAlpha"/>
<feOffset dy="3"/>
<feGaussianBlur stdDeviation="1.5"/>
<feColorMatrix type="matrix" values="0 0 0 0 0 0 0 0 0 0 0 0 0 0 0 0 0 0 0.196706 0"/>
<feBlend mode="normal" in2="BackgroundImageFix" result="effect1_dropShadow_0_371"/>
<feBlend mode="normal" in="SourceGraphic" in2="effect1_dropShadow_0_371" result="shape"/>
</filter>
<linearGradient id="paint0_linear_0_371" x1="0" y1="0" x2="0" y2="127.103" gradientUnits="userSpaceOnUse">
<stop stop-color="white" stop-opacity="0.0966455"/>
<stop offset="1" stop-color="white" stop-opacity="0.01"/>
</linearGradient>
<linearGradient id="paint1_linear_0_371" x1="115.827" y1="114.655" x2="115.827" y2="21.8738" gradientUnits="userSpaceOnUse">
<stop stop-color="#F3F3F3"/>
<stop offset="1" stop-color="#DADADA"/>
</linearGradient>
</defs>
</svg>
